<?xml version="1.0" encoding="UTF-8"?>
<svg id="_レイヤー_2" data-name="レイヤー 2" xmlns="http://www.w3.org/2000/svg" viewBox="0 0 122.3 33.79">
  <defs>
    <style>
      .cls-1 {
        fill: #2c2d2d;
        stroke-width: 0px;
      }
    </style>
  </defs>
  <g id="_レイヤー_1-2" data-name="レイヤー 1">
    <g>
      <g>
        <path class="cls-1" d="m17.21,16.88c2.26-1.57,3.75-4.18,3.75-7.13,0-4.78-3.89-8.67-8.67-8.67h-3.81V0l-2.82,2.63,2.82,2.63v-1.1h3.81c3.09,0,5.6,2.51,5.6,5.6s-2.51,5.6-5.6,5.6h-.56v3.07h.56c3.09,0,5.6,2.51,5.6,5.6s-2.51,5.6-5.6,5.6h-3.81v-1.08l-2.82,2.63,2.82,2.63v-1.1h3.81c4.78,0,8.67-3.89,8.67-8.67,0-2.95-1.49-5.57-3.75-7.13Z"/>
        <g>
          <path class="cls-1" d="m1.09,18.83c.67-1.37,1.75-2.51,3.07-3.26V3.96h1.09L2.63,1.15,0,3.96h1.09v14.86Z"/>
          <rect class="cls-1" x="1.09" y="24.52" width="3.07" height="8.15"/>
        </g>
        <path class="cls-1" d="m10.7,16.88l-2.82-2.63v1.09c-3.75,0-6.79,3.05-6.79,6.79v10.53h3.07v-10.53c0-2.05,1.67-3.72,3.72-3.72v1.09l2.82-2.63Z"/>
      </g>
      <g>
        <path class="cls-1" d="m36.5,8.19c1.58,0,2.44.56,2.44,1.76,0,.69-.35,1.16-.88,1.43.69.25,1.1.76,1.1,1.59,0,1.04-.68,1.92-2.44,1.92h-2.45v-6.69h2.24Zm-.88,2.65h.9c.75,0,1.07-.29,1.07-.77s-.23-.74-1.21-.74h-.76v1.5Zm0,2.9h.98c.82,0,1.2-.31,1.2-.88,0-.63-.42-.87-1.33-.87h-.85v1.76Z"/>
        <path class="cls-1" d="m46.3,8.19v3.98c0,1.98-1.09,2.8-2.57,2.8s-2.57-.82-2.57-2.79v-3.99h1.36v3.99c0,1.14.38,1.65,1.21,1.65s1.21-.5,1.21-1.65v-3.99h1.36Z"/>
        <path class="cls-1" d="m49.7,8.19l1.19,2.49,1.2-2.49h1.56l-2.09,3.96v2.74h-1.36v-2.74l-2.09-3.96h1.57Z"/>
        <path class="cls-1" d="m57.84,8.19c1.58,0,2.44.56,2.44,1.76,0,.69-.35,1.16-.88,1.43.69.25,1.1.76,1.1,1.59,0,1.04-.68,1.92-2.44,1.92h-2.45v-6.69h2.24Zm-.88,2.65h.9c.75,0,1.07-.29,1.07-.77s-.23-.74-1.21-.74h-.76v1.5Zm0,2.9h.98c.82,0,1.2-.31,1.2-.88,0-.63-.42-.87-1.33-.87h-.85v1.76Z"/>
        <path class="cls-1" d="m63.42,8.19l1.19,2.49,1.2-2.49h1.56l-2.09,3.96v2.74h-1.36v-2.74l-2.09-3.96h1.57Z"/>
        <path class="cls-1" d="m70.77,12.52v2.36h-1.36v-6.69h2.4c1.54,0,2.5.71,2.5,2.14s-.95,2.19-2.5,2.19h-1.04Zm.84-1.14c.94,0,1.34-.33,1.34-1.05,0-.64-.4-.99-1.34-.99h-.84v2.04h.84Z"/>
        <path class="cls-1" d="m79.76,14.88l-1.2-2.63h-1.09v2.63h-1.36v-6.69h2.4c1.54,0,2.5.69,2.5,2.05,0,.9-.42,1.49-1.14,1.79l1.39,2.85h-1.49Zm-1.38-3.77c.81,0,1.27-.17,1.27-.87s-.47-.89-1.27-.89h-.91v1.77h.91Z"/>
        <path class="cls-1" d="m85.52,14.97c-1.5,0-2.56-.91-2.56-2.96v-.95c0-2.07,1.06-2.96,2.56-2.96s2.57.89,2.57,2.96v.95c0,2.05-1.06,2.96-2.57,2.96Zm-1.2-2.96c0,1.28.42,1.81,1.2,1.81s1.21-.53,1.21-1.81v-.95c0-1.28-.43-1.81-1.21-1.81s-1.2.53-1.2,1.81v.95Z"/>
        <path class="cls-1" d="m90.37,14.88v-6.69h2.38c1.51,0,2.57.78,2.57,2.91v.87c0,2.12-1.06,2.91-2.57,2.91h-2.38Zm3.59-2.91v-.87c0-1.15-.31-1.76-1.21-1.76h-1.02v4.4h1.02c.9,0,1.21-.61,1.21-1.77Z"/>
        <path class="cls-1" d="m102.54,8.19v3.98c0,1.98-1.09,2.8-2.57,2.8s-2.57-.82-2.57-2.79v-3.99h1.36v3.99c0,1.14.38,1.65,1.21,1.65s1.21-.5,1.21-1.65v-3.99h1.36Z"/>
        <path class="cls-1" d="m108.39,10.26c-.13-.63-.49-1.02-1.15-1.02-.79,0-1.2.53-1.2,1.81v.95c0,1.24.42,1.81,1.2,1.81.68,0,1.01-.34,1.15-1.02h1.29c-.22,1.5-1.07,2.16-2.44,2.16-1.5,0-2.56-.91-2.56-2.96v-.95c0-2.07,1.06-2.96,2.56-2.96,1.33,0,2.23.7,2.45,2.16h-1.3Z"/>
        <path class="cls-1" d="m116.17,8.19v1.15h-1.84v5.54h-1.36v-5.54h-1.84v-1.15h5.05Z"/>
        <path class="cls-1" d="m121.21,9.92c-.29-.46-.64-.68-1.32-.68-.61,0-.94.28-.94.74,0,.52.43.76,1.32.98,1.4.35,2.03.87,2.03,2.06,0,1.1-.74,1.95-2.31,1.95-1.17,0-1.99-.32-2.58-1.1l1.04-.72c.36.45.77.67,1.46.67.78,0,1.04-.34,1.04-.75,0-.47-.28-.73-1.37-1.01-1.32-.35-1.98-.98-1.98-2.09s.7-1.88,2.29-1.88c1.07,0,1.87.36,2.35,1.1l-1.02.73Z"/>
        <path class="cls-1" d="m49,22.31c-.09-.45-.36-.73-.83-.73-.56,0-.86.38-.86,1.3v.68c0,.89.3,1.3.86,1.3.49,0,.72-.24.83-.73h.93c-.16,1.08-.77,1.55-1.76,1.55-1.08,0-1.84-.65-1.84-2.12v-.68c0-1.48.76-2.12,1.84-2.12.95,0,1.6.5,1.76,1.55h-.93Z"/>
        <path class="cls-1" d="m51.3,20.82h.96v.86h-.96v-.86Zm.03,1.32h.89v3.48h-.89v-3.48Z"/>
        <path class="cls-1" d="m55.7,23.11c-.09-.13-.22-.26-.44-.26-.33,0-.56.24-.56.73v2.05h-.89v-3.48h.87v.29c.12-.17.35-.36.76-.36s.73.18.94.54l-.68.49Z"/>
        <path class="cls-1" d="m59.85,25.09c-.24.41-.64.59-1.27.59-1,0-1.55-.63-1.55-1.57v-.47c0-1.02.56-1.56,1.6-1.56.54,0,.97.19,1.22.58l-.67.47c-.12-.17-.29-.29-.57-.29-.5,0-.7.31-.7.86v.36c0,.5.13.88.7.88.26,0,.45-.09.58-.3l.66.46Z"/>
        <path class="cls-1" d="m63.87,25.62h-.87v-.29c-.15.24-.33.35-.79.35-.7,0-1.28-.35-1.28-1.37v-2.17h.89v2.04c0,.55.19.74.56.74.41,0,.61-.25.61-.73v-2.05h.88v3.48Z"/>
        <path class="cls-1" d="m65.32,20.82h.89v3.49c0,.38.11.55.49.55v.77c-.94,0-1.38-.24-1.38-1.11v-3.69Z"/>
        <path class="cls-1" d="m69.11,23.53h.69v-.2c0-.39-.12-.52-.62-.52-.34,0-.51.05-.65.28l-.63-.44c.26-.43.65-.58,1.36-.58.9,0,1.41.26,1.41,1.26v2.28h-.87v-.31c-.14.24-.35.37-.75.37-.72,0-1.23-.38-1.23-1.09s.56-1.06,1.29-1.06Zm.69.65h-.59c-.36,0-.52.12-.52.39s.2.39.51.39c.4,0,.6-.17.6-.65v-.13Z"/>
        <path class="cls-1" d="m71.82,22.14h.45v-.77h.88v.77h.68v.75h-.68v1.46c0,.35.07.49.4.49h.29v.78h-.38c-.84,0-1.19-.24-1.19-1.14v-1.59h-.45v-.75Z"/>
        <path class="cls-1" d="m75.26,20.82h.96v.86h-.96v-.86Zm.03,1.32h.89v3.48h-.89v-3.48Z"/>
        <path class="cls-1" d="m80.44,24.08c0,.95-.45,1.6-1.5,1.6s-1.5-.63-1.5-1.6v-.42c0-1.04.55-1.59,1.5-1.59s1.5.54,1.5,1.59v.42Zm-.88-.03v-.36c0-.56-.18-.86-.62-.86s-.62.31-.62.86v.36c0,.5.13.88.62.88s.62-.38.62-.88Z"/>
        <path class="cls-1" d="m81.62,22.14h.87v.29c.13-.17.41-.36.8-.36.7,0,1.27.33,1.27,1.37v2.18h-.88v-2.04c0-.54-.19-.74-.56-.74-.41,0-.61.27-.61.73v2.05h-.89v-3.48Z"/>
        <path class="cls-1" d="m91.04,22.06c-.21-.33-.46-.49-.95-.49-.44,0-.68.2-.68.53,0,.38.31.54.95.7,1,.25,1.46.63,1.46,1.48,0,.79-.53,1.4-1.66,1.4-.84,0-1.43-.23-1.85-.79l.75-.52c.26.32.55.48,1.04.48.56,0,.75-.24.75-.54,0-.33-.2-.52-.98-.72-.95-.25-1.42-.7-1.42-1.5s.5-1.35,1.64-1.35c.77,0,1.34.26,1.69.79l-.73.52Z"/>
        <path class="cls-1" d="m92.9,22.14h.45v-.77h.88v.77h.68v.75h-.68v1.46c0,.35.07.49.4.49h.29v.78h-.38c-.84,0-1.19-.24-1.19-1.14v-1.59h-.45v-.75Z"/>
        <path class="cls-1" d="m99.14,25.62h-.87v-.29c-.15.24-.33.35-.79.35-.7,0-1.28-.35-1.28-1.37v-2.17h.89v2.04c0,.55.19.74.56.74.41,0,.61-.25.61-.73v-2.05h.88v3.48Z"/>
        <path class="cls-1" d="m102.42,20.82h.88v4.81h-.88v-.2c-.18.17-.42.26-.75.26-.91,0-1.38-.65-1.38-1.57v-.47c0-1.02.55-1.56,1.38-1.56.3,0,.55.08.75.24v-1.5Zm0,3.24v-.44c0-.51-.2-.79-.62-.79-.44,0-.62.31-.62.86v.36c0,.5.14.88.62.88s.62-.38.62-.88Z"/>
        <path class="cls-1" d="m104.79,20.82h.96v.86h-.96v-.86Zm.03,1.32h.89v3.48h-.89v-3.48Z"/>
        <path class="cls-1" d="m110,24.08c0,.95-.45,1.6-1.5,1.6s-1.5-.63-1.5-1.6v-.42c0-1.04.55-1.59,1.5-1.59s1.5.54,1.5,1.59v.42Zm-.88-.03v-.36c0-.56-.18-.86-.62-.86s-.62.31-.62.86v.36c0,.5.13.88.62.88s.62-.38.62-.88Z"/>
      </g>
    </g>
  </g>
</svg>